<svg width="370" height="290" viewBox="0 0 370 290" fill="none" xmlns="http://www.w3.org/2000/svg">
<path d="M74.6229 61C74.4762 61 74.3516 60.9487 74.2489 60.846C74.1462 60.7433 74.0949 60.6187 74.0949 60.472V46.128C74.0949 45.9813 74.1462 45.8567 74.2489 45.754C74.3516 45.6513 74.4762 45.6 74.6229 45.6H76.6909C76.8522 45.6 76.9769 45.6513 77.0649 45.754C77.1676 45.8567 77.2189 45.9813 77.2189 46.128V60.472C77.2189 60.6187 77.1676 60.7433 77.0649 60.846C76.9769 60.9487 76.8522 61 76.6909 61H74.6229ZM80.9331 61C80.7865 61 80.6618 60.9487 80.5591 60.846C80.4565 60.7433 80.4051 60.6187 80.4051 60.472V50.088C80.4051 49.9413 80.4565 49.8167 80.5591 49.714C80.6618 49.6113 80.7865 49.56 80.9331 49.56H82.7371C82.8838 49.56 83.0085 49.6113 83.1111 49.714C83.2138 49.8167 83.2651 49.9413 83.2651 50.088V50.99C83.6465 50.5207 84.1305 50.132 84.7171 49.824C85.3185 49.5013 86.0591 49.34 86.9391 49.34C87.8338 49.34 88.6111 49.5453 89.2711 49.956C89.9311 50.352 90.4371 50.9167 90.7891 51.65C91.1558 52.3833 91.3391 53.2633 91.3391 54.29V60.472C91.3391 60.6187 91.2878 60.7433 91.1851 60.846C91.0825 60.9487 90.9578 61 90.8111 61H88.8751C88.7285 61 88.6038 60.9487 88.5011 60.846C88.3985 60.7433 88.3471 60.6187 88.3471 60.472V54.422C88.3471 53.5713 88.1345 52.904 87.7091 52.42C87.2985 51.936 86.6971 51.694 85.9051 51.694C85.1425 51.694 84.5338 51.936 84.0791 52.42C83.6245 52.904 83.3971 53.5713 83.3971 54.422V60.472C83.3971 60.6187 83.3458 60.7433 83.2431 60.846C83.1405 60.9487 83.0158 61 82.8691 61H80.9331ZM98.4676 61.22C97.5876 61.22 96.8323 61.1173 96.2016 60.912C95.5856 60.7067 95.0796 60.45 94.6836 60.142C94.2876 59.834 93.9943 59.526 93.8036 59.218C93.613 58.91 93.5103 58.6533 93.4956 58.448C93.481 58.2867 93.525 58.162 93.6276 58.074C93.745 57.9713 93.8696 57.92 94.0016 57.92H95.7396C95.7983 57.92 95.8496 57.9273 95.8936 57.942C95.9376 57.9567 95.9963 58.0007 96.0696 58.074C96.2603 58.2353 96.4583 58.404 96.6636 58.58C96.8836 58.756 97.1403 58.91 97.4336 59.042C97.727 59.1593 98.0936 59.218 98.5336 59.218C99.1056 59.218 99.5823 59.108 99.9636 58.888C100.36 58.6533 100.558 58.3233 100.558 57.898C100.558 57.59 100.47 57.3407 100.294 57.15C100.132 56.9593 99.8243 56.7907 99.3696 56.644C98.915 56.4827 98.2696 56.314 97.4336 56.138C96.6123 55.9473 95.9303 55.7053 95.3876 55.412C94.845 55.1187 94.4416 54.752 94.1776 54.312C93.9136 53.872 93.7816 53.3587 93.7816 52.772C93.7816 52.2 93.9503 51.6573 94.2876 51.144C94.6396 50.616 95.153 50.1833 95.8276 49.846C96.517 49.5087 97.3676 49.34 98.3796 49.34C99.1716 49.34 99.861 49.4427 100.448 49.648C101.034 49.8387 101.518 50.0807 101.9 50.374C102.296 50.6673 102.596 50.968 102.802 51.276C103.007 51.5693 103.117 51.826 103.132 52.046C103.146 52.2073 103.102 52.3393 103 52.442C102.897 52.53 102.78 52.574 102.648 52.574H101.02C100.946 52.574 100.88 52.5593 100.822 52.53C100.763 52.5007 100.704 52.464 100.646 52.42C100.484 52.2733 100.308 52.1193 100.118 51.958C99.927 51.7967 99.6923 51.6573 99.4136 51.54C99.1496 51.408 98.7976 51.342 98.3576 51.342C97.8003 51.342 97.375 51.4667 97.0816 51.716C96.7883 51.9507 96.6416 52.2513 96.6416 52.618C96.6416 52.8673 96.7076 53.0873 96.8396 53.278C96.9863 53.454 97.2723 53.6227 97.6976 53.784C98.123 53.9453 98.7683 54.114 99.6336 54.29C100.616 54.466 101.394 54.73 101.966 55.082C102.552 55.4193 102.963 55.8153 103.198 56.27C103.447 56.71 103.572 57.2013 103.572 57.744C103.572 58.404 103.374 58.998 102.978 59.526C102.596 60.054 102.024 60.472 101.262 60.78C100.514 61.0733 99.5823 61.22 98.4676 61.22ZM106.393 65.18C106.246 65.18 106.121 65.1287 106.019 65.026C105.916 64.9233 105.865 64.7987 105.865 64.652V50.088C105.865 49.9413 105.916 49.8167 106.019 49.714C106.121 49.6113 106.246 49.56 106.393 49.56H108.131C108.292 49.56 108.417 49.6113 108.505 49.714C108.607 49.8167 108.659 49.9413 108.659 50.088V50.968C109.011 50.4987 109.473 50.11 110.045 49.802C110.617 49.494 111.328 49.34 112.179 49.34C112.956 49.34 113.631 49.4647 114.203 49.714C114.775 49.9633 115.251 50.3227 115.633 50.792C116.014 51.2467 116.307 51.7893 116.513 52.42C116.718 53.0507 116.835 53.7473 116.865 54.51C116.879 54.7593 116.887 55.016 116.887 55.28C116.887 55.544 116.879 55.808 116.865 56.072C116.85 56.8053 116.74 57.4873 116.535 58.118C116.329 58.734 116.029 59.2767 115.633 59.746C115.251 60.2007 114.775 60.56 114.203 60.824C113.631 61.088 112.956 61.22 112.179 61.22C111.387 61.22 110.712 61.0807 110.155 60.802C109.597 60.5087 109.143 60.1273 108.791 59.658V64.652C108.791 64.7987 108.739 64.9233 108.637 65.026C108.549 65.1287 108.424 65.18 108.263 65.18H106.393ZM111.365 58.866C111.995 58.866 112.487 58.734 112.839 58.47C113.191 58.1913 113.44 57.832 113.587 57.392C113.748 56.952 113.843 56.468 113.873 55.94C113.902 55.5 113.902 55.06 113.873 54.62C113.843 54.092 113.748 53.608 113.587 53.168C113.44 52.728 113.191 52.376 112.839 52.112C112.487 51.8333 111.995 51.694 111.365 51.694C110.763 51.694 110.272 51.8333 109.891 52.112C109.524 52.3907 109.253 52.75 109.077 53.19C108.915 53.6153 108.82 54.0553 108.791 54.51C108.776 54.774 108.769 55.0527 108.769 55.346C108.769 55.6393 108.776 55.9253 108.791 56.204C108.805 56.644 108.908 57.0693 109.099 57.48C109.289 57.876 109.568 58.206 109.935 58.47C110.301 58.734 110.778 58.866 111.365 58.866ZM119.884 61C119.738 61 119.613 60.9487 119.51 60.846C119.408 60.7433 119.356 60.6187 119.356 60.472V50.088C119.356 49.9413 119.408 49.8167 119.51 49.714C119.613 49.6113 119.738 49.56 119.884 49.56H121.71C121.872 49.56 121.996 49.6113 122.084 49.714C122.187 49.8167 122.238 49.9413 122.238 50.088V60.472C122.238 60.6187 122.187 60.7433 122.084 60.846C121.996 60.9487 121.872 61 121.71 61H119.884ZM119.796 47.668C119.635 47.668 119.503 47.624 119.4 47.536C119.312 47.4333 119.268 47.3013 119.268 47.14V45.556C119.268 45.4093 119.312 45.2847 119.4 45.182C119.503 45.0793 119.635 45.028 119.796 45.028H121.798C121.96 45.028 122.092 45.0793 122.194 45.182C122.297 45.2847 122.348 45.4093 122.348 45.556V47.14C122.348 47.3013 122.297 47.4333 122.194 47.536C122.092 47.624 121.96 47.668 121.798 47.668H119.796ZM125.685 61C125.538 61 125.414 60.9487 125.311 60.846C125.208 60.7433 125.157 60.6187 125.157 60.472V50.11C125.157 49.9487 125.208 49.8167 125.311 49.714C125.414 49.6113 125.538 49.56 125.685 49.56H127.467C127.614 49.56 127.738 49.6113 127.841 49.714C127.958 49.8167 128.017 49.9487 128.017 50.11V51.012C128.354 50.5427 128.787 50.1833 129.315 49.934C129.858 49.6847 130.481 49.56 131.185 49.56H132.087C132.248 49.56 132.373 49.6113 132.461 49.714C132.564 49.8167 132.615 49.9413 132.615 50.088V51.672C132.615 51.8187 132.564 51.9433 132.461 52.046C132.373 52.1487 132.248 52.2 132.087 52.2H130.371C129.667 52.2 129.117 52.398 128.721 52.794C128.34 53.19 128.149 53.7327 128.149 54.422V60.472C128.149 60.6187 128.098 60.7433 127.995 60.846C127.892 60.9487 127.76 61 127.599 61H125.685ZM137.481 61.22C136.718 61.22 136.029 61.0733 135.413 60.78C134.797 60.472 134.306 60.0687 133.939 59.57C133.587 59.0567 133.411 58.4847 133.411 57.854C133.411 56.8273 133.822 56.0133 134.643 55.412C135.479 54.796 136.579 54.3853 137.943 54.18L140.957 53.74V53.278C140.957 52.662 140.803 52.1853 140.495 51.848C140.187 51.5107 139.659 51.342 138.911 51.342C138.383 51.342 137.95 51.452 137.613 51.672C137.29 51.8773 137.048 52.156 136.887 52.508C136.77 52.6987 136.601 52.794 136.381 52.794H134.643C134.482 52.794 134.357 52.75 134.269 52.662C134.196 52.574 134.159 52.4567 134.159 52.31C134.174 52.0753 134.269 51.7893 134.445 51.452C134.621 51.1147 134.9 50.792 135.281 50.484C135.662 50.1613 136.154 49.89 136.755 49.67C137.356 49.45 138.082 49.34 138.933 49.34C139.857 49.34 140.634 49.4573 141.265 49.692C141.91 49.912 142.424 50.2127 142.805 50.594C143.186 50.9753 143.465 51.4227 143.641 51.936C143.817 52.4493 143.905 52.992 143.905 53.564V60.472C143.905 60.6187 143.854 60.7433 143.751 60.846C143.648 60.9487 143.524 61 143.377 61H141.595C141.434 61 141.302 60.9487 141.199 60.846C141.111 60.7433 141.067 60.6187 141.067 60.472V59.614C140.876 59.8927 140.62 60.1567 140.297 60.406C139.974 60.6407 139.578 60.8387 139.109 61C138.654 61.1467 138.112 61.22 137.481 61.22ZM138.229 59.13C138.742 59.13 139.204 59.02 139.615 58.8C140.04 58.58 140.37 58.2427 140.605 57.788C140.854 57.3187 140.979 56.732 140.979 56.028V55.566L138.779 55.918C137.914 56.05 137.268 56.2627 136.843 56.556C136.418 56.8493 136.205 57.2087 136.205 57.634C136.205 57.9567 136.3 58.2353 136.491 58.47C136.696 58.69 136.953 58.8587 137.261 58.976C137.569 59.0787 137.892 59.13 138.229 59.13ZM151.677 61.22C150.621 61.22 149.69 61.022 148.883 60.626C148.091 60.23 147.468 59.658 147.013 58.91C146.573 58.1473 146.331 57.2307 146.287 56.16C146.273 55.94 146.265 55.654 146.265 55.302C146.265 54.9353 146.273 54.6347 146.287 54.4C146.331 53.3293 146.573 52.42 147.013 51.672C147.468 50.9093 148.091 50.33 148.883 49.934C149.69 49.538 150.621 49.34 151.677 49.34C152.616 49.34 153.415 49.472 154.075 49.736C154.735 50 155.278 50.33 155.703 50.726C156.129 51.122 156.444 51.54 156.649 51.98C156.869 52.4053 156.987 52.794 157.001 53.146C157.016 53.3073 156.965 53.4393 156.847 53.542C156.745 53.63 156.62 53.674 156.473 53.674H154.537C154.391 53.674 154.273 53.6373 154.185 53.564C154.112 53.4907 154.039 53.3807 153.965 53.234C153.745 52.6473 153.452 52.2367 153.085 52.002C152.733 51.7527 152.279 51.628 151.721 51.628C150.988 51.628 150.401 51.8627 149.961 52.332C149.536 52.7867 149.309 53.5127 149.279 54.51C149.25 55.0673 149.25 55.5807 149.279 56.05C149.309 57.062 149.536 57.7953 149.961 58.25C150.401 58.7047 150.988 58.932 151.721 58.932C152.293 58.932 152.755 58.8147 153.107 58.58C153.459 58.3307 153.745 57.9127 153.965 57.326C154.039 57.1793 154.112 57.0693 154.185 56.996C154.273 56.9227 154.391 56.886 154.537 56.886H156.473C156.62 56.886 156.745 56.9373 156.847 57.04C156.965 57.128 157.016 57.2527 157.001 57.414C156.987 57.678 156.913 57.9787 156.781 58.316C156.664 58.6387 156.466 58.976 156.187 59.328C155.923 59.6653 155.586 59.9807 155.175 60.274C154.765 60.5527 154.266 60.78 153.679 60.956C153.107 61.132 152.44 61.22 151.677 61.22ZM157.404 65.18C157.257 65.18 157.132 65.1287 157.03 65.026C156.927 64.9233 156.876 64.7987 156.876 64.652V63.376C156.876 63.2293 156.927 63.1047 157.03 63.002C157.132 62.8993 157.257 62.848 157.404 62.848H157.976C158.43 62.848 158.768 62.7673 158.988 62.606C159.208 62.4447 159.354 62.2173 159.428 61.924C159.501 61.6453 159.538 61.33 159.538 60.978V50.088C159.538 49.9413 159.589 49.8167 159.692 49.714C159.794 49.6113 159.919 49.56 160.066 49.56H161.98C162.126 49.56 162.251 49.6113 162.354 49.714C162.456 49.8167 162.508 49.9413 162.508 50.088V61.022C162.508 61.8873 162.346 62.628 162.024 63.244C161.716 63.86 161.246 64.3367 160.616 64.674C160 65.0113 159.208 65.18 158.24 65.18H157.404ZM159.978 47.668C159.816 47.668 159.684 47.624 159.582 47.536C159.479 47.4333 159.428 47.3013 159.428 47.14V45.556C159.428 45.4093 159.479 45.2847 159.582 45.182C159.684 45.0793 159.816 45.028 159.978 45.028H162.046C162.207 45.028 162.339 45.0793 162.442 45.182C162.544 45.2847 162.596 45.4093 162.596 45.556V47.14C162.596 47.3013 162.544 47.4333 162.442 47.536C162.339 47.624 162.207 47.668 162.046 47.668H159.978ZM170.368 61.22C168.74 61.22 167.45 60.7507 166.496 59.812C165.543 58.8733 165.03 57.5387 164.956 55.808C164.942 55.6613 164.934 55.478 164.934 55.258C164.934 55.0233 164.942 54.84 164.956 54.708C165.015 53.608 165.264 52.6547 165.704 51.848C166.159 51.0413 166.782 50.4253 167.574 50C168.366 49.56 169.298 49.34 170.368 49.34C171.556 49.34 172.554 49.5893 173.36 50.088C174.167 50.572 174.776 51.254 175.186 52.134C175.597 52.9993 175.802 54.004 175.802 55.148V55.61C175.802 55.7567 175.751 55.8813 175.648 55.984C175.546 56.0867 175.414 56.138 175.252 56.138H167.948C167.948 56.138 167.948 56.16 167.948 56.204C167.948 56.248 167.948 56.2847 167.948 56.314C167.963 56.8273 168.058 57.304 168.234 57.744C168.425 58.1693 168.696 58.514 169.048 58.778C169.415 59.042 169.848 59.174 170.346 59.174C170.757 59.174 171.102 59.1153 171.38 58.998C171.659 58.866 171.886 58.7193 172.062 58.558C172.238 58.3967 172.363 58.2647 172.436 58.162C172.568 57.986 172.671 57.8833 172.744 57.854C172.832 57.81 172.957 57.788 173.118 57.788H175.01C175.157 57.788 175.274 57.832 175.362 57.92C175.465 58.008 175.509 58.118 175.494 58.25C175.48 58.4847 175.355 58.7707 175.12 59.108C174.9 59.4453 174.578 59.7753 174.152 60.098C173.727 60.4207 173.192 60.692 172.546 60.912C171.916 61.1173 171.19 61.22 170.368 61.22ZM167.948 54.29H172.81V54.224C172.81 53.652 172.715 53.1533 172.524 52.728C172.334 52.3027 172.055 51.9653 171.688 51.716C171.322 51.4667 170.882 51.342 170.368 51.342C169.855 51.342 169.415 51.4667 169.048 51.716C168.682 51.9653 168.403 52.3027 168.212 52.728C168.036 53.1533 167.948 53.652 167.948 54.224V54.29ZM183.715 65.18C183.568 65.18 183.444 65.1287 183.341 65.026C183.238 64.9233 183.187 64.7987 183.187 64.652V50.088C183.187 49.9413 183.238 49.8167 183.341 49.714C183.444 49.6113 183.568 49.56 183.715 49.56H185.453C185.614 49.56 185.739 49.6113 185.827 49.714C185.93 49.8167 185.981 49.9413 185.981 50.088V50.968C186.333 50.4987 186.795 50.11 187.367 49.802C187.939 49.494 188.65 49.34 189.501 49.34C190.278 49.34 190.953 49.4647 191.525 49.714C192.097 49.9633 192.574 50.3227 192.955 50.792C193.336 51.2467 193.63 51.7893 193.835 52.42C194.04 53.0507 194.158 53.7473 194.187 54.51C194.202 54.7593 194.209 55.016 194.209 55.28C194.209 55.544 194.202 55.808 194.187 56.072C194.172 56.8053 194.062 57.4873 193.857 58.118C193.652 58.734 193.351 59.2767 192.955 59.746C192.574 60.2007 192.097 60.56 191.525 60.824C190.953 61.088 190.278 61.22 189.501 61.22C188.709 61.22 188.034 61.0807 187.477 60.802C186.92 60.5087 186.465 60.1273 186.113 59.658V64.652C186.113 64.7987 186.062 64.9233 185.959 65.026C185.871 65.1287 185.746 65.18 185.585 65.18H183.715ZM188.687 58.866C189.318 58.866 189.809 58.734 190.161 58.47C190.513 58.1913 190.762 57.832 190.909 57.392C191.07 56.952 191.166 56.468 191.195 55.94C191.224 55.5 191.224 55.06 191.195 54.62C191.166 54.092 191.07 53.608 190.909 53.168C190.762 52.728 190.513 52.376 190.161 52.112C189.809 51.8333 189.318 51.694 188.687 51.694C188.086 51.694 187.594 51.8333 187.213 52.112C186.846 52.3907 186.575 52.75 186.399 53.19C186.238 53.6153 186.142 54.0553 186.113 54.51C186.098 54.774 186.091 55.0527 186.091 55.346C186.091 55.6393 186.098 55.9253 186.113 56.204C186.128 56.644 186.23 57.0693 186.421 57.48C186.612 57.876 186.89 58.206 187.257 58.47C187.624 58.734 188.1 58.866 188.687 58.866ZM197.229 61C197.082 61 196.957 60.9487 196.855 60.846C196.752 60.7433 196.701 60.6187 196.701 60.472V45.908C196.701 45.7613 196.752 45.6367 196.855 45.534C196.957 45.4313 197.082 45.38 197.229 45.38H199.055C199.201 45.38 199.326 45.4313 199.429 45.534C199.531 45.6367 199.583 45.7613 199.583 45.908V60.472C199.583 60.6187 199.531 60.7433 199.429 60.846C199.326 60.9487 199.201 61 199.055 61H197.229ZM205.823 61.22C205.06 61.22 204.371 61.0733 203.755 60.78C203.139 60.472 202.647 60.0687 202.281 59.57C201.929 59.0567 201.753 58.4847 201.753 57.854C201.753 56.8273 202.163 56.0133 202.985 55.412C203.821 54.796 204.921 54.3853 206.285 54.18L209.299 53.74V53.278C209.299 52.662 209.145 52.1853 208.837 51.848C208.529 51.5107 208.001 51.342 207.253 51.342C206.725 51.342 206.292 51.452 205.955 51.672C205.632 51.8773 205.39 52.156 205.229 52.508C205.111 52.6987 204.943 52.794 204.723 52.794H202.985C202.823 52.794 202.699 52.75 202.611 52.662C202.537 52.574 202.501 52.4567 202.501 52.31C202.515 52.0753 202.611 51.7893 202.787 51.452C202.963 51.1147 203.241 50.792 203.623 50.484C204.004 50.1613 204.495 49.89 205.097 49.67C205.698 49.45 206.424 49.34 207.275 49.34C208.199 49.34 208.976 49.4573 209.607 49.692C210.252 49.912 210.765 50.2127 211.147 50.594C211.528 50.9753 211.807 51.4227 211.983 51.936C212.159 52.4493 212.247 52.992 212.247 53.564V60.472C212.247 60.6187 212.195 60.7433 212.093 60.846C211.99 60.9487 211.865 61 211.719 61H209.937C209.775 61 209.643 60.9487 209.541 60.846C209.453 60.7433 209.409 60.6187 209.409 60.472V59.614C209.218 59.8927 208.961 60.1567 208.639 60.406C208.316 60.6407 207.92 60.8387 207.451 61C206.996 61.1467 206.453 61.22 205.823 61.22ZM206.571 59.13C207.084 59.13 207.546 59.02 207.957 58.8C208.382 58.58 208.712 58.2427 208.947 57.788C209.196 57.3187 209.321 56.732 209.321 56.028V55.566L207.121 55.918C206.255 56.05 205.61 56.2627 205.185 56.556C204.759 56.8493 204.547 57.2087 204.547 57.634C204.547 57.9567 204.642 58.2353 204.833 58.47C205.038 58.69 205.295 58.8587 205.603 58.976C205.911 59.0787 206.233 59.13 206.571 59.13ZM219.403 61.22C218.523 61.22 217.768 61.1173 217.137 60.912C216.521 60.7067 216.015 60.45 215.619 60.142C215.223 59.834 214.93 59.526 214.739 59.218C214.549 58.91 214.446 58.6533 214.431 58.448C214.417 58.2867 214.461 58.162 214.563 58.074C214.681 57.9713 214.805 57.92 214.937 57.92H216.675C216.734 57.92 216.785 57.9273 216.829 57.942C216.873 57.9567 216.932 58.0007 217.005 58.074C217.196 58.2353 217.394 58.404 217.599 58.58C217.819 58.756 218.076 58.91 218.369 59.042C218.663 59.1593 219.029 59.218 219.469 59.218C220.041 59.218 220.518 59.108 220.899 58.888C221.295 58.6533 221.493 58.3233 221.493 57.898C221.493 57.59 221.405 57.3407 221.229 57.15C221.068 56.9593 220.76 56.7907 220.305 56.644C219.851 56.4827 219.205 56.314 218.369 56.138C217.548 55.9473 216.866 55.7053 216.323 55.412C215.781 55.1187 215.377 54.752 215.113 54.312C214.849 53.872 214.717 53.3587 214.717 52.772C214.717 52.2 214.886 51.6573 215.223 51.144C215.575 50.616 216.089 50.1833 216.763 49.846C217.453 49.5087 218.303 49.34 219.315 49.34C220.107 49.34 220.797 49.4427 221.383 49.648C221.97 49.8387 222.454 50.0807 222.835 50.374C223.231 50.6673 223.532 50.968 223.737 51.276C223.943 51.5693 224.053 51.826 224.067 52.046C224.082 52.2073 224.038 52.3393 223.935 52.442C223.833 52.53 223.715 52.574 223.583 52.574H221.955C221.882 52.574 221.816 52.5593 221.757 52.53C221.699 52.5007 221.64 52.464 221.581 52.42C221.42 52.2733 221.244 52.1193 221.053 51.958C220.863 51.7967 220.628 51.6573 220.349 51.54C220.085 51.408 219.733 51.342 219.293 51.342C218.736 51.342 218.311 51.4667 218.017 51.716C217.724 51.9507 217.577 52.2513 217.577 52.618C217.577 52.8673 217.643 53.0873 217.775 53.278C217.922 53.454 218.208 53.6227 218.633 53.784C219.059 53.9453 219.704 54.114 220.569 54.29C221.552 54.466 222.329 54.73 222.901 55.082C223.488 55.4193 223.899 55.8153 224.133 56.27C224.383 56.71 224.507 57.2013 224.507 57.744C224.507 58.404 224.309 58.998 223.913 59.526C223.532 60.054 222.96 60.472 222.197 60.78C221.449 61.0733 220.518 61.22 219.403 61.22ZM231.905 61C231.025 61 230.285 60.846 229.683 60.538C229.082 60.23 228.635 59.7753 228.341 59.174C228.048 58.558 227.901 57.7953 227.901 56.886V51.892H226.163C226.017 51.892 225.892 51.8407 225.789 51.738C225.687 51.6353 225.635 51.5107 225.635 51.364V50.088C225.635 49.9413 225.687 49.8167 225.789 49.714C225.892 49.6113 226.017 49.56 226.163 49.56H227.901V45.908C227.901 45.7613 227.945 45.6367 228.033 45.534C228.136 45.4313 228.268 45.38 228.429 45.38H230.211C230.358 45.38 230.483 45.4313 230.585 45.534C230.688 45.6367 230.739 45.7613 230.739 45.908V49.56H233.489C233.636 49.56 233.761 49.6113 233.863 49.714C233.966 49.8167 234.017 49.9413 234.017 50.088V51.364C234.017 51.5107 233.966 51.6353 233.863 51.738C233.761 51.8407 233.636 51.892 233.489 51.892H230.739V56.666C230.739 57.2673 230.842 57.7367 231.047 58.074C231.267 58.4113 231.641 58.58 232.169 58.58H233.687C233.834 58.58 233.959 58.6313 234.061 58.734C234.164 58.8367 234.215 58.9613 234.215 59.108V60.472C234.215 60.6187 234.164 60.7433 234.061 60.846C233.959 60.9487 233.834 61 233.687 61H231.905ZM238.235 65.18C238.118 65.18 238.015 65.136 237.927 65.048C237.839 64.96 237.795 64.8573 237.795 64.74C237.795 64.6813 237.795 64.6227 237.795 64.564C237.81 64.52 237.839 64.4613 237.883 64.388L239.599 60.318L235.375 50.352C235.316 50.2053 235.287 50.1027 235.287 50.044C235.302 49.912 235.353 49.802 235.441 49.714C235.529 49.6113 235.639 49.56 235.771 49.56H237.553C237.729 49.56 237.861 49.604 237.949 49.692C238.037 49.78 238.103 49.8753 238.147 49.978L241.073 57.172L244.087 49.978C244.131 49.8607 244.197 49.7653 244.285 49.692C244.373 49.604 244.505 49.56 244.681 49.56H246.441C246.558 49.56 246.661 49.604 246.749 49.692C246.852 49.78 246.903 49.8827 246.903 50C246.903 50.088 246.874 50.2053 246.815 50.352L240.589 64.762C240.53 64.8793 240.457 64.9747 240.369 65.048C240.281 65.136 240.149 65.18 239.973 65.18H238.235ZM253.341 61.22C252.285 61.22 251.354 61.022 250.547 60.626C249.755 60.23 249.132 59.658 248.677 58.91C248.237 58.1473 247.995 57.2307 247.951 56.16C247.937 55.94 247.929 55.654 247.929 55.302C247.929 54.9353 247.937 54.6347 247.951 54.4C247.995 53.3293 248.237 52.42 248.677 51.672C249.132 50.9093 249.755 50.33 250.547 49.934C251.354 49.538 252.285 49.34 253.341 49.34C254.28 49.34 255.079 49.472 255.739 49.736C256.399 50 256.942 50.33 257.367 50.726C257.793 51.122 258.108 51.54 258.313 51.98C258.533 52.4053 258.651 52.794 258.665 53.146C258.68 53.3073 258.629 53.4393 258.511 53.542C258.409 53.63 258.284 53.674 258.137 53.674H256.201C256.055 53.674 255.937 53.6373 255.849 53.564C255.776 53.4907 255.703 53.3807 255.629 53.234C255.409 52.6473 255.116 52.2367 254.749 52.002C254.397 51.7527 253.943 51.628 253.385 51.628C252.652 51.628 252.065 51.8627 251.625 52.332C251.2 52.7867 250.973 53.5127 250.943 54.51C250.914 55.0673 250.914 55.5807 250.943 56.05C250.973 57.062 251.2 57.7953 251.625 58.25C252.065 58.7047 252.652 58.932 253.385 58.932C253.957 58.932 254.419 58.8147 254.771 58.58C255.123 58.3307 255.409 57.9127 255.629 57.326C255.703 57.1793 255.776 57.0693 255.849 56.996C255.937 56.9227 256.055 56.886 256.201 56.886H258.137C258.284 56.886 258.409 56.9373 258.511 57.04C258.629 57.128 258.68 57.2527 258.665 57.414C258.651 57.678 258.577 57.9787 258.445 58.316C258.328 58.6387 258.13 58.976 257.851 59.328C257.587 59.6653 257.25 59.9807 256.839 60.274C256.429 60.5527 255.93 60.78 255.343 60.956C254.771 61.132 254.104 61.22 253.341 61.22ZM260.916 61C260.754 61 260.622 60.9487 260.52 60.846C260.432 60.7433 260.388 60.6187 260.388 60.472V59.218C260.388 59.086 260.417 58.9613 260.476 58.844C260.549 58.712 260.622 58.602 260.696 58.514L266.328 51.848H261.092C260.945 51.848 260.82 51.804 260.718 51.716C260.615 51.6133 260.564 51.4813 260.564 51.32V50.088C260.564 49.9413 260.615 49.8167 260.718 49.714C260.82 49.6113 260.945 49.56 261.092 49.56H269.43C269.591 49.56 269.716 49.6113 269.804 49.714C269.906 49.8167 269.958 49.9413 269.958 50.088V51.43C269.958 51.562 269.928 51.6793 269.87 51.782C269.811 51.8847 269.738 51.9947 269.65 52.112L264.15 58.712H269.892C270.038 58.712 270.163 58.7633 270.266 58.866C270.368 58.954 270.42 59.0787 270.42 59.24V60.472C270.42 60.6187 270.368 60.7433 270.266 60.846C270.163 60.9487 270.038 61 269.892 61H260.916ZM273.175 61C273.029 61 272.904 60.9487 272.801 60.846C272.699 60.7433 272.647 60.6187 272.647 60.472V50.088C272.647 49.9413 272.699 49.8167 272.801 49.714C272.904 49.6113 273.029 49.56 273.175 49.56H274.979C275.126 49.56 275.251 49.6113 275.353 49.714C275.456 49.8167 275.507 49.9413 275.507 50.088V50.99C275.889 50.5207 276.373 50.132 276.959 49.824C277.561 49.5013 278.301 49.34 279.181 49.34C280.076 49.34 280.853 49.5453 281.513 49.956C282.173 50.352 282.679 50.9167 283.031 51.65C283.398 52.3833 283.581 53.2633 283.581 54.29V60.472C283.581 60.6187 283.53 60.7433 283.427 60.846C283.325 60.9487 283.2 61 283.053 61H281.117C280.971 61 280.846 60.9487 280.743 60.846C280.641 60.7433 280.589 60.6187 280.589 60.472V54.422C280.589 53.5713 280.377 52.904 279.951 52.42C279.541 51.936 278.939 51.694 278.147 51.694C277.385 51.694 276.776 51.936 276.321 52.42C275.867 52.904 275.639 53.5713 275.639 54.422V60.472C275.639 60.6187 275.588 60.7433 275.485 60.846C275.383 60.9487 275.258 61 275.111 61H273.175ZM291.304 61.22C289.676 61.22 288.385 60.7507 287.432 59.812C286.478 58.8733 285.965 57.5387 285.892 55.808C285.877 55.6613 285.87 55.478 285.87 55.258C285.87 55.0233 285.877 54.84 285.892 54.708C285.95 53.608 286.2 52.6547 286.64 51.848C287.094 51.0413 287.718 50.4253 288.51 50C289.302 49.56 290.233 49.34 291.304 49.34C292.492 49.34 293.489 49.5893 294.296 50.088C295.102 50.572 295.711 51.254 296.122 52.134C296.532 52.9993 296.738 54.004 296.738 55.148V55.61C296.738 55.7567 296.686 55.8813 296.584 55.984C296.481 56.0867 296.349 56.138 296.188 56.138H288.884C288.884 56.138 288.884 56.16 288.884 56.204C288.884 56.248 288.884 56.2847 288.884 56.314C288.898 56.8273 288.994 57.304 289.17 57.744C289.36 58.1693 289.632 58.514 289.984 58.778C290.35 59.042 290.783 59.174 291.282 59.174C291.692 59.174 292.037 59.1153 292.316 58.998C292.594 58.866 292.822 58.7193 292.998 58.558C293.174 58.3967 293.298 58.2647 293.372 58.162C293.504 57.986 293.606 57.8833 293.68 57.854C293.768 57.81 293.892 57.788 294.054 57.788H295.946C296.092 57.788 296.21 57.832 296.298 57.92C296.4 58.008 296.444 58.118 296.43 58.25C296.415 58.4847 296.29 58.7707 296.056 59.108C295.836 59.4453 295.513 59.7753 295.088 60.098C294.662 60.4207 294.127 60.692 293.482 60.912C292.851 61.1173 292.125 61.22 291.304 61.22ZM288.884 54.29H293.746V54.224C293.746 53.652 293.65 53.1533 293.46 52.728C293.269 52.3027 292.99 51.9653 292.624 51.716C292.257 51.4667 291.817 51.342 291.304 51.342C290.79 51.342 290.35 51.4667 289.984 51.716C289.617 51.9653 289.338 52.3027 289.148 52.728C288.972 53.1533 288.884 53.652 288.884 54.224V54.29Z" fill="white"/>
<g clip-path="url(#clip0_3_770)">
<mask id="mask0_3_770" style="mask-type:luminance" maskUnits="userSpaceOnUse" x="75" y="84" width="220" height="206">
<path d="M295 84H75V290H295V84Z" fill="white"/>
</mask>
<g mask="url(#mask0_3_770)">
<mask id="mask1_3_770" style="mask-type:luminance" maskUnits="userSpaceOnUse" x="93" y="88" width="201" height="200">
<path d="M293.38 88.33H93.22V287.34H293.38V88.33Z" fill="white"/>
</mask>
<g mask="url(#mask1_3_770)">
<path d="M108.98 246.01C114.13 259.94 122.91 260.04 122.91 260.04C122.91 260.04 148.31 247.32 143.16 233.38C138.01 219.44 126.19 210.97 116.75 214.46C107.31 217.95 103.83 232.07 108.98 246.01Z" fill="#3A9682"/>
<path d="M239.47 212.18C248.65 211.67 262.96 214.27 271.72 218.5C276.4 220.76 271.98 235.4 267.32 240.36C262.66 245.32 248.25 248.68 241.51 249.05C227.42 249.83 215.54 242.21 214.97 232.03C214.4 221.85 225.37 212.96 239.46 212.18" fill="#2C7B67"/>
<path d="M114.35 169.36C114.32 169.01 114.3 168.66 114.27 168.31H114.51C117.41 152.5 146.73 140.08 182.47 140.08C218.21 140.08 247.54 152.5 250.43 168.31H250.67C250.64 168.66 250.61 169.01 250.59 169.36C250.64 169.87 250.67 170.37 250.67 170.88C250.67 172.06 250.52 173.24 250.23 174.39C249.01 193.03 248.56 214.06 239.6 233.53C218.79 278.76 189.49 280.59 182.47 280.34C175.46 280.59 146.15 278.76 125.34 233.53C116.38 214.06 115.93 193.03 114.71 174.39C114.42 173.24 114.27 172.07 114.27 170.88C114.27 170.37 114.3 169.86 114.35 169.36Z" fill="#81C4B8"/>
<path d="M143.72 150.79C164.2 150.79 180.97 166.06 182.47 185.43C183.97 166.06 200.74 150.79 221.22 150.79C241.7 150.79 260.09 167.57 260.09 188.26C260.09 208.95 242.69 225.73 221.22 225.73C199.75 225.73 183.97 210.46 182.47 191.09C181.17 207.86 168.43 221.55 151.75 224.93C149.11 225.46 146.42 225.73 143.72 225.73C122.25 225.73 104.85 208.95 104.85 188.26C104.85 167.57 122.25 150.79 143.72 150.79Z" fill="#5CB5A6"/>
<path d="M163.38 245.4C165.71 245.36 167.94 244.42 169.59 242.77C170.14 242.25 170.82 243.19 170.38 243.85C168.24 247.72 163.37 249.12 159.51 246.98C158.19 246.25 157.11 245.17 156.38 243.85C155.94 243.19 156.62 242.24 157.17 242.77C158.82 244.42 161.05 245.36 163.38 245.4Z" fill="#A6D6D2"/>
<path d="M201.56 245.4C203.89 245.36 206.12 244.42 207.77 242.77C208.32 242.25 209 243.19 208.56 243.85C206.42 247.72 201.55 249.12 197.69 246.98C196.37 246.25 195.29 245.17 194.56 243.85C194.12 243.19 194.8 242.24 195.35 242.77C197 244.42 199.23 245.36 201.56 245.4Z" fill="#A6D6D2"/>
<path d="M182.47 245.4C184.8 245.36 187.03 244.42 188.68 242.77C189.23 242.25 189.91 243.19 189.47 243.85C187.33 247.72 182.46 249.12 178.6 246.98C177.28 246.25 176.2 245.17 175.47 243.85C175.03 243.19 175.71 242.24 176.26 242.77C177.91 244.42 180.14 245.36 182.47 245.4Z" fill="#A6D6D2"/>
<path d="M173.19 258.02C175.52 257.98 177.75 257.04 179.4 255.39C179.95 254.87 180.63 255.81 180.19 256.47C178.05 260.34 173.18 261.74 169.32 259.6C168 258.87 166.92 257.79 166.19 256.47C165.75 255.81 166.43 254.86 166.98 255.39C168.63 257.04 170.86 257.98 173.19 258.02Z" fill="#A6D6D2"/>
<path d="M192.28 258.02C194.61 257.98 196.84 257.04 198.49 255.39C199.04 254.87 199.72 255.81 199.28 256.47C197.14 260.34 192.27 261.74 188.41 259.6C187.09 258.87 186.01 257.79 185.28 256.47C184.84 255.81 185.52 254.86 186.07 255.39C187.72 257.04 189.95 257.98 192.28 258.02Z" fill="#A6D6D2"/>
<path d="M203.04 279.51C203.04 281.33 204.05 283.97 204.99 286.03C205.79 287.79 207.3 287.79 208.1 286.03C209.04 283.97 210.05 281.33 210.05 279.51C210.05 276.13 208.48 273.38 206.54 273.38C204.6 273.38 203.03 276.12 203.03 279.51" fill="#F37F00"/>
<path d="M195.37 279.51C195.37 281.33 196.38 283.97 197.32 286.03C198.12 287.79 199.63 287.79 200.43 286.03C201.37 283.97 202.38 281.33 202.38 279.51C202.38 276.13 200.81 273.38 198.87 273.38C196.93 273.38 195.36 276.12 195.36 279.51" fill="#F37F00"/>
<path d="M187.7 279.51C187.7 281.33 188.71 283.97 189.65 286.03C190.45 287.79 191.96 287.79 192.76 286.03C193.7 283.97 194.71 281.33 194.71 279.51C194.71 276.13 193.14 273.38 191.2 273.38C189.26 273.38 187.69 276.12 187.69 279.51" fill="#F37F00"/>
<path d="M170.23 279.51C170.23 281.33 171.24 283.97 172.18 286.03C172.98 287.79 174.49 287.79 175.29 286.03C176.23 283.97 177.24 281.33 177.24 279.51C177.24 276.13 175.67 273.38 173.73 273.38C171.79 273.38 170.22 276.12 170.22 279.51" fill="#F37F00"/>
<path d="M162.56 279.51C162.56 281.33 163.57 283.97 164.51 286.03C165.31 287.79 166.82 287.79 167.62 286.03C168.56 283.97 169.57 281.33 169.57 279.51C169.57 276.13 168 273.38 166.06 273.38C164.12 273.38 162.55 276.12 162.55 279.51" fill="#F37F00"/>
<path d="M154.89 279.51C154.89 281.33 155.9 283.97 156.84 286.03C157.64 287.79 159.15 287.79 159.95 286.03C160.89 283.97 161.9 281.33 161.9 279.51C161.9 276.13 160.33 273.38 158.39 273.38C156.45 273.38 154.88 276.12 154.88 279.51" fill="#F37F00"/>
<path d="M109.67 133.96C109.67 133.96 113.43 134.43 114.88 127.23C114.88 127.23 120.44 136.28 135.12 138.67C149.47 141.01 177.01 139.31 177.01 139.31L187.94 139.32C187.94 139.32 215.48 141.01 229.83 138.67C244.51 136.28 250.07 127.23 250.07 127.23C251.52 134.43 255.28 133.96 255.28 133.96C260.51 132.37 271.72 120.84 271.72 120.84C266.11 137.71 254.9 151.76 220.87 165.19C208.02 170.26 195.67 176.52 183.99 183.9L182.48 184.89L180.97 183.9C169.29 176.52 156.94 170.26 144.09 165.19C110.06 151.76 98.85 137.71 93.24 120.84C93.24 120.84 104.45 132.37 109.68 133.96" fill="#3A9682"/>
<path d="M163.38 154.69C165.71 154.65 167.94 153.71 169.59 152.06C170.14 151.54 170.82 152.48 170.38 153.14C168.24 157.01 163.37 158.41 159.51 156.27C158.19 155.54 157.11 154.46 156.38 153.14C155.94 152.48 156.62 151.53 157.17 152.06C158.82 153.71 161.05 154.65 163.38 154.69Z" fill="#367D6B"/>
<path d="M201.56 154.69C203.89 154.65 206.12 153.71 207.77 152.06C208.32 151.54 209 152.48 208.56 153.14C206.42 157.01 201.55 158.41 197.69 156.27C196.37 155.54 195.29 154.46 194.56 153.14C194.12 152.48 194.8 151.53 195.35 152.06C197 153.71 199.23 154.65 201.56 154.69Z" fill="#367D6B"/>
<path d="M182.47 154.69C184.8 154.65 187.03 153.71 188.68 152.06C189.23 151.54 189.91 152.48 189.47 153.14C187.33 157.01 182.46 158.41 178.6 156.27C177.28 155.54 176.2 154.46 175.47 153.14C175.03 152.48 175.71 151.53 176.26 152.06C177.91 153.71 180.14 154.65 182.47 154.69Z" fill="#367D6B"/>
<path d="M173.19 167.3C175.52 167.26 177.75 166.32 179.4 164.67C179.95 164.15 180.63 165.09 180.19 165.75C178.05 169.62 173.18 171.02 169.32 168.88C168 168.15 166.92 167.07 166.19 165.75C165.75 165.09 166.43 164.14 166.98 164.67C168.63 166.32 170.86 167.26 173.19 167.3Z" fill="#367D6B"/>
<path d="M192.28 167.3C194.61 167.26 196.84 166.32 198.49 164.67C199.04 164.15 199.72 165.09 199.28 165.75C197.14 169.62 192.27 171.02 188.41 168.88C187.09 168.15 186.01 167.07 185.28 165.75C184.84 165.09 185.52 164.14 186.07 164.67C187.72 166.32 189.95 167.26 192.28 167.3Z" fill="#367D6B"/>
<path d="M182.47 178.22C184.8 178.18 187.03 177.24 188.68 175.59C189.23 175.07 189.91 176.01 189.47 176.67C187.33 180.54 182.46 181.94 178.6 179.8C177.28 179.07 176.2 177.99 175.47 176.67C175.03 176.01 175.71 175.06 176.26 175.59C177.91 177.24 180.14 178.18 182.47 178.22Z" fill="#367D6B"/>
<path d="M192.94 203.43C193.01 203.55 193.07 203.67 193.13 203.78C193.53 204.65 193.59 205.64 193.3 206.55L183.55 236.01C183.06 237.49 181.89 237.49 181.4 236.01L171.65 206.55C171.36 205.64 171.42 204.65 171.82 203.78C171.88 203.67 171.94 203.55 172.01 203.43C177.76 192.85 187.19 192.85 192.94 203.43Z" fill="#F37F00"/>
<path d="M174.54 104.38L174.14 103.08C176.91 102.8 179.67 103.69 181.76 105.53C183.94 107.64 184.1 110.08 184.1 113.12L183.74 113.09C183.74 111.78 183.55 110.48 183.18 109.22C182.42 106.81 180.39 105.03 177.9 104.58C176.86 104.35 175.79 104.27 174.73 104.36C174.59 104.36 174.41 104.41 174.54 104.38Z" fill="#0E2865"/>
<path d="M131.23 141.3L190.59 88.33L239.05 144.94L131.23 141.3Z" fill="#C9E1E8"/>
<path d="M195.89 94.5199L144.25 141.74L145.27 141.77L196.35 95.0599L195.89 94.5199Z" fill="#85C9DF"/>
<path d="M194.28 92.6499L140.73 141.63L141.75 141.66L194.75 93.1999L194.29 92.6499H194.28Z" fill="#85C9DF"/>
<path d="M192.97 91.11L137.84 141.52L138.86 141.55L193.43 91.65L192.97 91.11Z" fill="#85C9DF"/>
<path d="M191.55 89.46L134.73 141.42L135.75 141.45L192.01 90L191.55 89.46Z" fill="#85C9DF"/>
<path d="M154.41 142.08L155.43 142.11L179.24 120.34L178.68 119.89L154.42 142.08H154.41Z" fill="#85C9DF"/>
<path d="M200.98 100.47L200.52 99.9299L194.95 105.02L195.5 105.48L200.98 100.47Z" fill="#85C9DF"/>
<path d="M157.51 142.19L158.53 142.22L180.95 121.72L180.39 121.27L157.52 142.19H157.51Z" fill="#85C9DF"/>
<path d="M202.39 102.12L201.93 101.58L196.63 106.43L197.18 106.89L202.4 102.12H202.39Z" fill="#85C9DF"/>
<path d="M160.61 142.29L161.63 142.32L182.65 123.1L182.09 122.64L160.62 142.28L160.61 142.29Z" fill="#85C9DF"/>
<path d="M203.8 103.77L203.34 103.23L198.3 107.84L198.85 108.3L203.8 103.77Z" fill="#85C9DF"/>
<path d="M205.21 105.41L204.75 104.87L199.97 109.24L200.52 109.7L205.21 105.41Z" fill="#85C9DF"/>
<path d="M163.71 142.4L164.73 142.43L184.36 124.48L183.8 124.03L163.72 142.4H163.71Z" fill="#85C9DF"/>
<path d="M166.81 142.5L167.83 142.53L186.06 125.86L185.5 125.41L166.81 142.5Z" fill="#85C9DF"/>
<path d="M206.62 107.06L206.16 106.52L201.64 110.65L202.19 111.11L206.62 107.06Z" fill="#85C9DF"/>
<path d="M169.91 142.61L170.93 142.64L187.77 127.24L187.21 126.79L169.91 142.61Z" fill="#85C9DF"/>
<path d="M208.03 108.71L207.57 108.17L203.32 112.06L203.87 112.52L208.03 108.71Z" fill="#85C9DF"/>
<path d="M209.44 110.36L208.98 109.82L204.99 113.47L205.54 113.93L209.44 110.36Z" fill="#85C9DF"/>
<path d="M173.01 142.71L174.03 142.74L189.48 128.62L188.92 128.17L173.01 142.71Z" fill="#85C9DF"/>
<path d="M176.1 142.82L177.12 142.85L191.17 130L190.61 129.55L176.1 142.82Z" fill="#85C9DF"/>
<path d="M210.85 112.01L210.39 111.47L206.67 114.88L207.22 115.34L210.86 112.01H210.85Z" fill="#85C9DF"/>
<path d="M179.2 142.92L180.22 142.95L192.88 131.37L192.32 130.92L179.2 142.92Z" fill="#85C9DF"/>
<path d="M212.26 113.65L211.8 113.11L208.34 116.28L208.89 116.74L212.27 113.65H212.26Z" fill="#85C9DF"/>
<path d="M182.3 143.03L183.32 143.06L194.59 132.76L194.03 132.31L182.31 143.03H182.3Z" fill="#85C9DF"/>
<path d="M213.67 115.3L213.21 114.76L210.01 117.68L210.56 118.14L213.67 115.29V115.3Z" fill="#85C9DF"/>
<path d="M185.4 143.13L186.42 143.16L196.3 134.13L195.74 133.68L185.41 143.13H185.4Z" fill="#85C9DF"/>
<path d="M215.09 116.95L214.63 116.41L211.69 119.09L212.24 119.55L215.09 116.95Z" fill="#85C9DF"/>
<path d="M188.5 143.23L189.52 143.26L198 135.5L197.44 135.05L188.5 143.22V143.23Z" fill="#85C9DF"/>
<path d="M216.5 118.6L216.04 118.06L213.37 120.5L213.92 120.96L216.51 118.6H216.5Z" fill="#85C9DF"/>
<path d="M199.7 136.89L199.14 136.44L191.59 143.34L192.61 143.37L199.92 136.68L199.7 136.88V136.89Z" fill="#85C9DF"/>
<path d="M217.91 120.24L217.45 119.7L215.04 121.9L215.59 122.36L217.91 120.24Z" fill="#85C9DF"/>
<path d="M218.85 121.35L194.7 143.44L195.72 143.48L219.32 121.9L218.86 121.36L218.85 121.35Z" fill="#85C9DF"/>
<path d="M220.27 123L197.8 143.55L198.82 143.58L220.73 123.54L220.27 123Z" fill="#85C9DF"/>
<path d="M221.68 124.65L200.9 143.65L201.92 143.68L222.14 125.18L221.68 124.65Z" fill="#85C9DF"/>
<path d="M223.09 126.3L204 143.76L205.02 143.79L223.55 126.84L223.09 126.3Z" fill="#85C9DF"/>
<path d="M224.5 127.95L207.1 143.86L208.12 143.89L224.97 128.48L224.5 127.94V127.95Z" fill="#85C9DF"/>
<path d="M225.91 129.6L210.2 143.97L211.22 144L226.38 130.14L225.91 129.6Z" fill="#85C9DF"/>
<path d="M227.32 131.25L213.29 144.08L214.31 144.12L227.78 131.8L227.32 131.26V131.25Z" fill="#85C9DF"/>
<path d="M228.73 132.89L216.39 144.17L217.41 144.2L229.19 133.42L228.73 132.88V132.89Z" fill="#85C9DF"/>
<path d="M230.14 134.54L219.49 144.28L220.51 144.31L230.61 135.08L230.14 134.54Z" fill="#85C9DF"/>
<path d="M231.55 136.19L222.58 144.39L223.6 144.42L232.01 136.73L231.55 136.18V136.19Z" fill="#85C9DF"/>
<path d="M232.96 137.84L225.68 144.49L226.7 144.53L233.42 138.39L232.96 137.85V137.84Z" fill="#85C9DF"/>
<path d="M234.37 139.49L228.78 144.6L229.8 144.63L234.83 140.03L234.37 139.49Z" fill="#85C9DF"/>
<path d="M235.79 141.13L231.89 144.7L232.91 144.73L236.26 141.67L235.8 141.13H235.79Z" fill="#85C9DF"/>
<path d="M237.2 142.78L234.99 144.8L236.01 144.83L237.67 143.32L237.21 142.78H237.2Z" fill="#85C9DF"/>
<path d="M199.1 98.28L198.64 97.74L192.72 103.15L193.27 103.61L199.1 98.28Z" fill="#85C9DF"/>
<path d="M174.71 121.15L174.25 120.61L168.33 126.02L168.88 126.48L174.71 121.15Z" fill="#85C9DF"/>
<path d="M197.43 96.3199L147.64 141.85L148.66 141.88L197.89 96.8699L197.43 96.3299V96.3199Z" fill="#85C9DF"/>
<path d="M180.77 117.93L192.8 106.93L211.27 122.47L199.59 133.15L180.77 117.93Z" fill="#85C9DF"/>
<path d="M151.64 129.74L186.54 96.5399L150.16 130.2L151.64 129.74Z" fill="#C9E1E8"/>
<path d="M131.23 141.3L142.47 128.62L239.05 144.94L131.23 141.3Z" fill="#ECEBEB"/>
<path d="M159.39 251.77C157.6 251.69 152.38 249.28 150.62 249.18C148.86 249.08 151.34 252.01 158.02 254.42" fill="#F18C6E"/>
<path d="M100.98 248.98C101.71 250.77 103.37 252.79 106.22 254.94C123.42 267.86 157.22 271.93 164 261.43C164.97 259.93 166.14 256.96 165.88 254.85C165.88 254.84 165.88 254.83 165.88 254.82C165.88 254.48 165.85 254.14 165.81 253.8C164.47 243.02 140.4 233.49 125.09 233.07C122.4 233 120.68 233.71 120.15 234.8C119.35 235.69 119.09 236.94 119.47 238.08C119.96 239.09 122.71 240.88 123.36 242.34C121.67 243.91 118 243.02 116.34 242.32C110.46 239.81 104.19 239.56 101.97 242.33H101.96C100.37 243.71 100.04 246.65 100.99 248.99M110.56 249.6C112.54 245.65 124.45 249.06 123.41 253.14C120.21 253.85 112.83 252 110.56 249.6Z" fill="#BF905E"/>
<path d="M106.91 252.72C126.57 267.49 167.91 270.7 165.81 253.79C164.47 243.01 140.4 233.48 125.09 233.06C119.71 232.92 118.25 235.89 122.28 238.76C126.31 241.63 121.73 243.68 116.27 241.36C105.56 236.79 93.77 242.84 106.91 252.72ZM110.49 246.67C112.14 243.2 124.96 246.92 124.71 250.94C124.41 255.6 108.25 251.41 110.49 246.67Z" fill="#FFDB9D"/>
<mask id="mask2_3_770" style="mask-type:luminance" maskUnits="userSpaceOnUse" x="141" y="240" width="12" height="6">
<path d="M152.28 240.3H141.35V245.98H152.28V240.3Z" fill="white"/>
</mask>
<g mask="url(#mask2_3_770)">
<path d="M151.21 243.18C153.54 244.38 151.63 246.91 149.31 245.63C147.43 246.62 143.46 244.42 142.72 243.93C140.18 242.22 141.51 239.81 143.9 240.38C146.59 241.03 148.11 238.61 151.21 243.18Z" fill="#624691"/>
</g>
<mask id="mask3_3_770" style="mask-type:luminance" maskUnits="userSpaceOnUse" x="150" y="249" width="11" height="8">
<path d="M160.79 249.71H150.16V256.22H160.79V249.71Z" fill="white"/>
</mask>
<g mask="url(#mask3_3_770)">
<path d="M150.25 251.27C151.11 247.45 163.71 251.37 160.15 255.29C159.57 256.79 154.77 256.3 153.73 255.17C150.79 254.68 149.83 253.13 150.25 251.27Z" fill="#EA5E0E"/>
</g>
<mask id="mask4_3_770" style="mask-type:luminance" maskUnits="userSpaceOnUse" x="140" y="255" width="13" height="8">
<path d="M152.27 255.12H140.98V262.17H152.27V255.12Z" fill="white"/>
</mask>
<g mask="url(#mask4_3_770)">
<path d="M141.95 256.76C141.7 254.73 146.53 254.55 147.51 256.38C149.42 255.23 153.93 258.37 151.66 260.25C151.55 262.19 148.84 262.62 144.5 261.68C140.09 260.72 140.59 258.42 141.96 256.76" fill="#65A51C"/>
</g>
<path d="M132.51 256.88C132.2 252.98 127.85 253.27 126.32 254.42C125.18 255.28 122.41 254.21 122.92 256.54C123.43 258.87 132.99 262.86 132.51 256.88Z" fill="#3B8ECF"/>
<path d="M136.66 253.67C135.29 252.43 131.98 253.53 134.18 255.27C136.38 257.01 138.75 255.56 136.66 253.67Z" fill="#3B8ECF"/>
<mask id="mask5_3_770" style="mask-type:luminance" maskUnits="userSpaceOnUse" x="127" y="235" width="11" height="7">
<path d="M137.13 235.29H127.35V241.78H137.13V235.29Z" fill="white"/>
</mask>
<g mask="url(#mask5_3_770)">
<path d="M127.79 237.27C129.53 233.76 133.44 235.65 134.43 237.28C135.17 238.5 138.12 238.54 136.79 240.51C135.46 242.48 125.12 242.64 127.79 237.26" fill="#D6227C"/>
</g>
<path d="M141.16 204.04C147.43 205.88 153.32 208.82 158.57 212.71C167.73 207.74 173.46 198.18 173.53 187.76C173.53 171.85 160.15 158.96 143.65 158.96C127.15 158.96 113.77 171.86 113.77 187.76C113.77 192.54 115 197.24 117.34 201.41C123.44 200.38 132.14 201.2 141.17 204.04" fill="#181616"/>
<path d="M140.38 201.25C148.07 203.67 154.5 207.08 158.64 210.63C166.61 206.02 171.55 197.53 171.61 188.32C171.61 173.85 159.44 162.11 144.42 162.11C129.4 162.11 117.23 173.85 117.23 188.32C117.23 191.75 117.93 195.14 119.28 198.3C126.43 197.99 133.58 199 140.38 201.26" fill="white"/>
<path d="M128.42 165.96C128.42 165.96 123.28 163.28 123.43 158.38C122.03 161.26 122.4 164.68 124.38 167.19C126.4 169.98 128.42 165.95 128.42 165.95" fill="#181616"/>
<path d="M124.08 167.8C124.08 167.8 118.94 165.12 119.09 160.22C117.67 163.09 118.04 166.53 120.04 169.03C123.42 173.63 124.08 167.79 124.08 167.79" fill="#181616"/>
<path d="M162.69 181.63C160.78 183.31 158.32 184.24 155.77 184.23C155.27 184.23 154.77 184.19 154.27 184.11C153.71 188.24 149.9 191.14 145.76 190.57C142.13 190.07 139.37 187.04 139.23 183.37C139.29 179.7 142.05 176.63 145.69 176.19C145.16 173.56 145.77 170.84 147.35 168.68C146.15 168.46 144.93 168.35 143.71 168.35C132.69 168.35 123.76 176.96 123.76 187.58C123.77 192.56 125.76 197.32 129.28 200.83C132.79 201.35 136.26 202.11 139.67 203.09C141.05 203.55 144.38 204.99 147.63 206.43C156.8 204.8 163.53 196.89 163.66 187.57C163.66 185.54 163.32 183.53 162.67 181.61" fill="#181616"/>
<path d="M223.44 204.04C217.17 205.88 211.28 208.82 206.03 212.71C196.87 207.74 191.14 198.18 191.07 187.76C191.07 171.85 204.45 158.96 220.95 158.96C237.45 158.96 250.83 171.86 250.83 187.76C250.83 192.54 249.6 197.24 247.26 201.41C241.16 200.38 232.46 201.2 223.43 204.04" fill="#181616"/>
<path d="M224.22 201.25C216.53 203.67 210.1 207.08 205.96 210.63C197.99 206.02 193.05 197.53 192.99 188.32C192.99 173.85 205.17 162.11 220.18 162.11C235.19 162.11 247.37 173.85 247.37 188.32C247.37 191.75 246.67 195.14 245.32 198.3C238.17 197.99 231.02 199 224.22 201.26" fill="white"/>
<path d="M237.16 166.24C237.16 166.24 242.47 163.91 242.64 159.01C243.89 161.97 243.29 165.38 241.12 167.74C238.63 170.64 237.17 166.24 237.17 166.24" fill="#181616"/>
<path d="M241.38 168.36C241.38 168.36 246.69 166.03 246.86 161.13C248.08 164.09 247.49 167.49 245.34 169.86C241.66 174.23 241.39 168.36 241.39 168.36" fill="#181616"/>
<path d="M235.24 200.32C237.96 196.76 239.43 192.41 239.42 187.93C239.42 186.71 239.3 185.49 239.08 184.29C236.92 185.88 234.2 186.48 231.57 185.95C231.12 189.93 227.53 192.78 223.55 192.33C219.79 191.9 216.99 188.65 217.13 184.87C217.07 181.07 219.89 177.83 223.66 177.37C223.59 176.87 223.55 176.37 223.54 175.87C223.54 173.32 224.46 170.86 226.14 168.95C224.22 168.3 222.21 167.96 220.18 167.96C209.56 167.96 200.95 176.89 200.95 187.91C200.85 196.75 206.61 204.58 215.07 207.13C221.33 203.66 228.16 201.35 235.24 200.31" fill="#181616"/>
<path d="M111.93 248.35C113.82 247.03 118.7 244.13 118.7 244.13C118.7 244.13 121.38 248.57 122.7 250.88C123.76 252.72 119.21 251.98 116.44 251.36C113.67 250.74 110.19 249.56 111.93 248.35Z" fill="#3A9682"/>
<path d="M263.21 252.97C263.21 252.97 277 210.72 280 201.15C280.39 199.94 279.85 198.62 278.71 198.04C277.72 197.61 276.56 198.07 276.14 199.06C276.1 199.16 276.06 199.27 276.03 199.38C273.04 208.93 263.3 237.97 259.28 251.07C258.9 252.28 259.45 253.59 260.58 254.17C261.57 254.59 262.71 254.14 263.13 253.15C263.15 253.09 263.18 253.03 263.2 252.98" fill="#641315"/>
<path d="M278.62 205.52C279.77 202.21 281.58 195.39 282.83 191.14C282.98 190.22 282.52 189.31 281.7 188.87C280.65 188.26 279.45 189.31 279.29 189.86C277.95 194.14 276.4 197.38 274.46 203.95C273.77 206.29 278.07 207.1 278.61 205.53" fill="#AEADAD"/>
<path d="M276.53 182.49C277.36 179.96 279.04 177.8 281.28 176.38C283.35 174.9 285.62 173.76 287.52 172.02C289.61 170.23 290.81 167.63 290.83 164.88C292.68 170.12 294.3 175.93 292.8 181.16C291.58 185.41 288.51 188.5 285.57 191.39C283.47 193.45 280.5 195.53 278.31 192.26C276.54 189.33 275.91 185.86 276.54 182.5" fill="#DC9D76"/>
<path d="M287.8 197.34C287.95 199.3 289.68 199.26 289.83 197.74C289.89 197.17 289.34 195.48 289.33 193.31C288.38 194.44 287.84 195.86 287.8 197.34Z" fill="#624691"/>
<path d="M287.98 184.75C288.33 184.56 288.88 184.74 288.9 185.13C288.9 186.23 289.54 187.24 290.54 187.71C290.71 186.17 292.16 183.35 292.8 181.15C294.3 175.92 292.68 170.11 290.83 164.87C290.82 167.62 289.61 170.22 287.52 172.01C285.62 173.76 282.98 174.7 280.92 176.18C279.57 177.28 278.44 178.61 277.58 180.12C278.01 180.1 278.42 179.89 278.68 179.54C279.22 178.75 280.2 178.39 281.12 178.63C281.41 178.75 281.71 178.84 282.02 178.89C282.75 178.94 283.31 178.28 283.77 177.7C284.23 177.12 284.89 176.52 285.59 176.71C284.35 178.95 283.56 181.42 283.27 183.97C283.2 184.55 284 184.91 284.54 184.68C285.05 184.39 285.45 183.94 285.7 183.41C285.95 182.87 286.41 182.46 286.96 182.27C286.77 183.42 286.89 184.6 287.3 185.7C287.41 185.31 287.65 184.98 287.98 184.74" fill="#624691"/>
<path d="M261.47 219.27C261.47 219.27 272.21 216.62 275.51 220.78C279.08 225.29 272.77 235.99 267.32 240.37C262.57 230.62 261.47 219.27 261.47 219.27Z" fill="#3A9682"/>
<path d="M123.64 225.45C109.41 220.93 100.1 210.06 96.72 194.03C95.19 186.57 94.92 178.91 95.92 171.37L96.4 168.39L186.62 187.9L186.09 190.73C185.92 191.6 181.88 212.17 165.02 222.75C158.46 226.8 150.88 228.89 143.18 228.76C136.54 228.66 129.95 227.54 123.65 225.44M101.08 175.36C100.32 184.59 100.3 211.94 125.26 219.87C140 224.55 152.39 223.85 162.1 217.78C173.41 210.71 178.24 198.01 179.9 192.4L101.08 175.36Z" fill="#4C4C4B"/>
<path d="M200.97 222.76C184.11 212.18 180.06 191.61 179.9 190.74L179.36 187.91L269.59 168.4L270.07 171.38C271.07 178.93 270.8 186.58 269.27 194.04C265.89 210.07 256.58 220.93 242.35 225.45C236.05 227.55 229.46 228.67 222.82 228.77C215.11 228.9 207.53 226.81 200.98 222.76M186.09 192.4C187.73 198 192.52 210.65 203.85 217.76C213.56 223.86 225.97 224.57 240.73 219.87C265.7 211.94 265.67 184.58 264.91 175.36L186.09 192.4Z" fill="#4C4C4B"/>
<path d="M257.95 173.71C256.48 173.75 258.27 184.02 257.43 188.61C256.59 193.2 255.12 199.36 259 199.45C262.88 199.54 260.98 196.03 259.45 192.89C257.92 189.75 260.01 173.65 257.95 173.71Z" fill="#624691"/>
<path d="M258.68 202.47C256.72 201.44 254.72 210.27 258.61 211.07C262.5 211.87 263.61 205.07 258.68 202.47Z" fill="#624691"/>
</g>
</g>
</g>
<defs>
<clipPath id="clip0_3_770">
<rect width="220" height="206" fill="white" transform="translate(75 84)"/>
</clipPath>
</defs>
</svg>
