<svg width="20" height="20" viewBox="0 0 20 20" fill="none" xmlns="http://www.w3.org/2000/svg">
<g clip-path="url(#clip0_7_931)">
<mask id="mask0_7_931" style="mask-type:luminance" maskUnits="userSpaceOnUse" x="0" y="0" width="20" height="20">
<path d="M20 0H0V20H20V0Z" fill="white"/>
</mask>
<g mask="url(#mask0_7_931)">
<path d="M3.95996 18.7C2.50996 18.7 1.33996 17.53 1.32996 16.08V12.61C1.33996 12.12 1.74996 11.73 2.23996 11.75C2.70996 11.76 3.08996 12.14 3.09996 12.61V16.08C3.09996 16.55 3.47996 16.93 3.94996 16.93H16.1C16.57 16.93 16.94 16.55 16.95 16.08V12.61C16.96 12.12 17.37 11.73 17.86 11.75C18.33 11.76 18.71 12.14 18.72 12.61V16.08C18.72 17.53 17.55 18.7 16.1 18.7H3.95996ZM5.05996 8.89997C4.70996 8.54997 4.70996 7.98997 5.05996 7.63997C5.40996 7.28997 5.96996 7.28997 6.31996 7.63997L9.13996 10.46V2.19997C9.14996 1.70997 9.55996 1.31997 10.05 1.33997C10.52 1.34997 10.9 1.72997 10.91 2.19997V10.47L13.73 7.64997C14.08 7.29997 14.64 7.29997 14.99 7.64997C15.34 7.99997 15.34 8.55997 14.99 8.90997L10.02 13.88L5.04996 8.90997L5.05996 8.89997Z" fill="#919191"/>
</g>
</g>
<defs>
<clipPath id="clip0_7_931">
<rect width="20" height="20" fill="white"/>
</clipPath>
</defs>
</svg>
