<svg width="20" height="20" viewBox="0 0 20 20" fill="none" xmlns="http://www.w3.org/2000/svg">
<g clip-path="url(#clip0_7_973)">
<mask id="mask0_7_973" style="mask-type:luminance" maskUnits="userSpaceOnUse" x="0" y="0" width="20" height="20">
<path d="M20 0H0V20H20V0Z" fill="white"/>
</mask>
<g mask="url(#mask0_7_973)">
<path d="M3.95997 18.7C2.50997 18.7 1.33997 17.52 1.33997 16.08V3.93001C1.33997 2.48001 2.50997 1.31001 3.95997 1.31001H7.42997C7.91997 1.30001 8.32997 1.68001 8.33997 2.17001C8.34997 2.66001 7.96997 3.07001 7.46997 3.08001H3.94997C3.47997 3.08001 3.09997 3.46001 3.09997 3.93001V16.08C3.09997 16.55 3.47997 16.93 3.93997 16.93H7.40997C7.89997 16.93 8.29997 17.33 8.29997 17.82C8.29997 18.31 7.89997 18.71 7.40997 18.71H3.93997L3.95997 18.7ZM12.87 14.97C12.52 14.62 12.52 14.06 12.87 13.71L15.69 10.89H7.42997C6.93997 10.9 6.52997 10.52 6.51997 10.03C6.50997 9.54001 6.88997 9.13001 7.38997 9.12001H15.7L12.88 6.30001C12.53 5.95001 12.53 5.39001 12.88 5.04001C13.23 4.69001 13.79 4.69001 14.14 5.04001L19.11 10.01L18.48 10.64L14.14 14.98C13.8 15.33 13.24 15.33 12.89 14.98L12.87 14.97Z" fill="#919191"/>
</g>
</g>
<defs>
<clipPath id="clip0_7_973">
<rect width="20" height="20" fill="white"/>
</clipPath>
</defs>
</svg>
