<svg width="20" height="20" viewBox="0 0 20 20" fill="none" xmlns="http://www.w3.org/2000/svg">
<mask id="mask0_7_950" style="mask-type:luminance" maskUnits="userSpaceOnUse" x="0" y="0" width="20" height="20">
<path d="M20 0H0V20H20V0Z" fill="white"/>
</mask>
<g mask="url(#mask0_7_950)">
<path d="M13.99 18.1H3.18003C1.92003 18.1 0.910034 17.08 0.910034 15.83V8.9C0.910034 7.64 1.93003 6.63 3.18003 6.63H13.99C15.25 6.63 16.26 7.65 16.27 8.9V15.83C16.27 17.09 15.25 18.1 13.99 18.1ZM3.18003 8.4C2.90003 8.4 2.68003 8.62 2.68003 8.9V15.83C2.68003 16.11 2.90003 16.33 3.18003 16.33H13.99C14.27 16.33 14.49 16.11 14.49 15.83V8.9C14.49 8.62 14.27 8.4 13.99 8.4H3.18003Z" fill="#919191"/>
<path d="M16.77 13.94H15.38C14.89 13.94 14.49 13.54 14.49 13.05C14.49 12.56 14.89 12.16 15.38 12.16H16.77C17.05 12.16 17.27 11.94 17.27 11.66V4.73001C17.27 4.45001 17.05 4.23001 16.77 4.23001H5.95004C5.67004 4.23001 5.45004 4.45001 5.45004 4.73001C5.45004 5.22001 5.05004 5.62001 4.56004 5.62001C4.07004 5.62001 3.67004 5.22001 3.67004 4.73001C3.67004 3.47001 4.69004 2.46001 5.95004 2.45001H16.76C18.02 2.45001 19.03 3.47001 19.04 4.73001V11.66C19.04 12.91 18.02 13.93 16.77 13.94Z" fill="#919191"/>
<path d="M14.44 11.56H5.56004C5.07004 11.56 4.67004 11.16 4.67004 10.67C4.67004 10.18 5.07004 9.78 5.56004 9.78H14.45C14.94 9.78 15.34 10.18 15.34 10.67C15.34 11.16 14.94 11.56 14.45 11.56H14.44Z" fill="#919191"/>
<path d="M12.6701 15.33H9.34007C8.85007 15.33 8.45007 14.93 8.45007 14.44C8.45007 13.95 8.85007 13.55 9.34007 13.55H12.6701C13.1601 13.55 13.5601 13.95 13.5601 14.44C13.5601 14.93 13.1601 15.33 12.6701 15.33Z" fill="#919191"/>
</g>
</svg>
