<svg width="20" height="20" viewBox="0 0 20 20" fill="none" xmlns="http://www.w3.org/2000/svg">
<mask id="mask0_7_941" style="mask-type:luminance" maskUnits="userSpaceOnUse" x="0" y="0" width="20" height="20">
<path d="M20 0H0V20H20V0Z" fill="white"/>
</mask>
<g mask="url(#mask0_7_941)">
<path d="M16.29 18.31C16.29 15.6 13.47 13.4 10 13.4C6.53001 13.4 3.71001 15.6 3.71001 18.31C3.71001 18.81 3.30001 19.22 2.80001 19.22C2.30001 19.22 1.89001 18.81 1.89001 18.31C1.89001 14.61 5.53001 11.59 10 11.59C14.47 11.59 18.11 14.6 18.11 18.31C18.11 18.81 17.7 19.22 17.2 19.22C16.7 19.22 16.29 18.81 16.29 18.31ZM4.90001 5.85C4.87001 3.03 7.14001 0.730001 9.95001 0.700001C12.77 0.670001 15.07 2.94 15.1 5.75C15.13 8.57 12.86 10.87 10.05 10.9H10C7.20001 10.9 4.92001 8.65 4.90001 5.85ZM6.72001 5.85C6.70001 7.66 8.16001 9.15 9.97001 9.16C11.78 9.18 13.27 7.72 13.28 5.91C13.3 4.1 11.84 2.61 10.03 2.6H10C8.20001 2.6 6.73001 4.05 6.71001 5.85H6.72001Z" fill="#919191"/>
</g>
</svg>
